HIERARCHY
ROOT hip
{
	OFFSET 0.000000 0.000000 0.000000 
	CHANNELS 6 Xposition Yposition Zposition Xrotation Zrotation Yrotation
	JOINT abdomen
	{
		OFFSET 0.000000 3.402643 0.000000 
		CHANNELS 3 Xrotation Zrotation Yrotation
		JOINT chest
		{
			OFFSET 0.000000 8.438565 -0.680529 
			CHANNELS 3 Xrotation Zrotation Yrotation
			JOINT neck
			{
				OFFSET 0.000000 10.207942 -0.272212 
				CHANNELS 3 Xrotation Zrotation Yrotation
				JOINT head
				{
					OFFSET 0.000000 3.130431 0.000000 
					CHANNELS 3 Xrotation Zrotation Yrotation
					End Site
					{
						OFFSET 0.000000 3.130435 0.000000 
					}
				}
			}
			JOINT lCollar
			{
				OFFSET 3.470700 6.669187 -0.816635 
				CHANNELS 3 Yrotation Zrotation Xrotation
				JOINT lShldr
				{
					OFFSET 3.198488 0.000000 0.000000 
					CHANNELS 3 Zrotation Yrotation Xrotation
					JOINT lForeArm
					{
						OFFSET 10.139888 0.000000 0.000000 
						CHANNELS 3 Yrotation Zrotation Xrotation
						JOINT lHand
						{
							OFFSET 8.370511 0.000000 0.000000 
							CHANNELS 3 Zrotation Yrotation Xrotation
							End Site
							{
								OFFSET 4.083176 0.000000 0.000000 
							}
						}
					}
				}
			}
			JOINT rCollar
			{
				OFFSET -3.470700 6.669187 -0.816635 
				CHANNELS 3 Yrotation Zrotation Xrotation
				JOINT rShldr
				{
					OFFSET -3.198488 0.000000 0.000000 
					CHANNELS 3 Zrotation Yrotation Xrotation
					JOINT rForeArm
					{
						OFFSET -10.139888 0.000000 0.000000 
						CHANNELS 3 Yrotation Zrotation Xrotation
						JOINT rHand
						{
							OFFSET -8.370511 0.000000 0.000000 
							CHANNELS 3 Zrotation Yrotation Xrotation
							End Site
							{
								OFFSET -4.083176 0.000000 0.000000 
							}
						}
					}
				}
			}
		}
	}
	JOINT lThigh
	{
		OFFSET 5.308129 -1.633274 1.361059 
		CHANNELS 3 Xrotation Zrotation Yrotation
		JOINT lShin
		{
			OFFSET -2.041588 -20.007561 0.000000 
			CHANNELS 3 Xrotation Zrotation Yrotation
			JOINT lFoot
			{
				OFFSET 0.000000 -19.190928 -1.224953 
				CHANNELS 3 Xrotation Yrotation Zrotation
				End Site
				{
					OFFSET 0.000000 -2.449906 4.627600 
				}
			}
		}
	}
	JOINT rThigh
	{
		OFFSET -5.308129 -1.633274 1.361059 
		CHANNELS 3 Xrotation Zrotation Yrotation
		JOINT rShin
		{
			OFFSET 2.041588 -20.007561 0.000000 
			CHANNELS 3 Xrotation Zrotation Yrotation
			JOINT rFoot
			{
				OFFSET 0.000000 -19.190928 -1.224953 
				CHANNELS 3 Xrotation Yrotation Zrotation
				End Site
				{
					OFFSET 0.000000 -2.449906 4.627600 
				}
			}
		}
	}
}
MOTION
Frames: 13
Frame Time: 0.033333
-20.049355 47.080399 22.478540 10.742188 -3.642578 28.954456 32.376793 -8.892606 -4.864594 -15.107422 11.005858 4.853517 37.636723 7.978516 2.852917 -38.544918 -7.724609 -16.016939 1.992188 -2.001953 0.000341 36.083984 43.554688 124.830940 -120.620789 0.813447 -2.689155 -47.692661 5.144121 -69.399689 -2.001953 1.992188 0.000000 18.876953 -47.255859 49.179688 116.164978 -0.807088 -2.610588 78.793228 -16.659594 -53.882160 -19.744493 31.214569 18.195938 25.449759 -2.032251 -2.607254 -2.988690 -45.368290 13.716599 -4.700442 -33.976189 -26.744389 21.758970 1.507724 1.710366 -12.020516 25.184078 2.695393 
-18.934486 46.321239 22.918026 10.556642 -3.115234 29.940872 31.467627 -7.662927 -4.507910 -14.843751 12.197264 5.029298 37.636723 7.978516 2.852917 -36.943359 -7.949218 -19.267580 1.992188 -2.001953 0.000341 39.238281 45.283203 127.331161 -121.350304 1.109535 -2.623929 -51.704346 2.742077 -69.144974 -2.001953 1.992188 0.000000 23.398439 -48.857418 47.512177 118.604378 -0.780370 -2.550812 78.604820 -18.322962 -58.244499 -20.467600 30.893080 19.674616 31.492800 -1.686470 -2.666818 -7.061960 -48.748459 13.822967 -3.498825 -36.469841 -25.770721 23.675774 1.365387 2.008237 -14.287349 24.188690 4.267886 
-17.768482 45.799297 22.979362 10.380859 -2.939453 30.341299 30.341166 -6.359890 -3.939710 -14.404299 13.203124 5.214844 37.636723 7.978516 2.852917 -35.537106 -8.339844 -22.032667 1.992188 -2.001953 0.000341 41.806641 46.171879 129.694534 -122.216431 1.084093 -2.535081 -54.297176 1.741280 -68.579491 -2.001953 1.992188 0.000000 27.841797 -50.527344 45.556641 120.924881 -1.240606 -2.756437 77.716347 -19.730490 -62.506573 -22.557114 31.459896 19.907303 38.549973 -1.457512 -3.131246 -8.880693 -49.656334 15.038292 -2.433591 -38.796253 -25.000093 24.741007 1.605709 2.023765 -16.975424 23.416492 5.263181 
-16.572355 45.332745 23.195465 10.019531 -3.144531 30.858839 29.269733 -5.091774 -3.688097 -14.150391 14.199218 5.556641 37.636723 7.978516 2.852917 -34.326176 -8.906251 -24.316406 1.992188 -2.001953 0.000341 42.197266 46.318359 130.888672 -122.427109 1.245303 -2.424916 -56.057949 1.122566 -68.193672 -2.001953 1.992188 0.000000 31.376953 -51.591797 43.410324 123.060036 -1.381439 -2.664869 76.041092 -20.116074 -64.858932 -23.757545 31.838615 19.483578 43.795311 -1.213887 -3.715431 -12.870078 -50.909111 14.090723 -1.592863 -40.466808 -24.695452 26.289778 1.253989 2.402124 -19.028502 23.528940 7.425578 
-15.424203 44.676369 23.357992 9.824219 -3.300781 31.181078 28.378132 -4.064249 -3.371841 -13.886719 15.205078 5.703126 37.636723 7.978516 2.852917 -33.466797 -9.423829 -26.388319 1.992188 -2.001953 0.000341 40.673828 46.425777 130.351563 -121.868553 1.140541 -2.361710 -56.060459 1.836052 -67.694077 -2.001953 1.992188 0.000000 32.353512 -53.056641 42.509762 124.454834 -1.383563 -2.616116 70.341782 -19.458145 -63.752014 -25.175491 32.284328 19.126106 48.998116 -0.931486 -3.741490 -17.263479 -52.558105 12.985055 -0.607313 -42.614899 -24.328747 27.708324 1.292857 2.386257 -20.421225 23.533581 8.523409 
-14.274722 44.154438 23.286930 9.501954 -3.642578 31.669298 27.349092 -2.768235 -3.185341 -13.623047 16.191408 5.869141 37.636723 7.978516 2.852917 -32.607422 -10.253905 -28.222658 1.992188 -2.001953 0.000341 38.613281 46.728519 129.606720 -121.152733 0.975922 -2.549713 -55.968990 2.712147 -67.333000 -2.001953 1.992188 0.000000 31.904299 -53.886715 41.691334 125.000084 -1.344112 -2.848629 61.645702 -16.927582 -60.096874 -26.591053 32.468559 18.672646 53.931683 -0.531684 -4.035140 -18.747181 -52.248913 14.699492 0.073620 -44.181641 -23.804394 29.071922 1.126811 2.426803 -21.663828 23.604826 10.372905 
-13.235653 43.498081 23.137522 9.335938 -4.169922 31.766869 26.506828 -1.698333 -2.950578 -13.544922 17.207031 6.145467 37.636723 7.978516 2.852917 -32.060547 -11.074219 -29.894453 1.992188 -2.001953 0.000341 37.060543 46.884769 129.267578 -120.460602 1.130323 -2.595528 -56.116997 3.186783 -67.112976 -2.001953 1.992188 0.000000 30.673826 -55.058598 41.464844 125.713646 -1.326300 -2.584319 56.293583 -15.174858 -57.873219 -28.199051 32.725327 17.740042 58.697533 -0.229453 -4.301974 -20.703100 -51.672661 15.932581 0.200120 -45.685478 -23.028524 30.479771 1.068133 2.755555 -22.307766 23.741796 11.521331 
-12.324864 42.936619 22.897738 9.169923 -4.687500 32.049984 25.613491 -0.698150 -2.573189 -13.261719 17.871094 6.269532 37.636723 7.978516 2.852917 -31.699219 -11.904297 -31.154358 1.992188 -2.001953 0.000341 37.363281 47.021484 130.973938 -120.436493 0.980179 -2.452374 -56.014626 3.573840 -66.694054 -2.001953 1.992188 0.000000 29.218750 -56.494141 41.446941 126.253448 -1.322901 -2.662324 55.548306 -15.127230 -57.913357 -29.872778 32.889866 17.040745 62.896023 0.083473 -4.512348 -22.485041 -51.293797 16.933733 0.180272 -46.983799 -22.500750 31.875648 1.019407 2.861470 -22.540388 23.646725 11.872602 
-11.573901 42.422600 22.573044 9.150391 -5.224609 32.147552 24.947048 0.227352 -2.439479 -13.203125 18.554688 6.279298 37.636723 7.978516 2.852917 -31.542969 -12.919922 -32.453358 1.992188 -2.001953 0.000341 38.593750 47.197266 133.417969 -120.453667 0.951310 -2.665867 -56.404243 3.588493 -66.518326 -2.001953 1.992188 0.000000 27.773438 -58.027340 41.349136 126.422836 -1.330980 -2.477289 57.792347 -16.013926 -58.449249 -31.542789 33.066029 15.804459 66.597603 0.228267 -4.493137 -23.301937 -50.782558 18.373310 -0.041632 -48.063076 -22.110924 32.936581 0.960735 2.762393 -23.387655 24.088152 12.708685 
-11.086678 41.979748 22.182880 9.179688 -5.732421 32.285156 24.422806 1.052237 -2.161330 -13.183594 18.886719 6.204333 37.636723 7.978516 2.852917 -31.914063 -13.730469 -32.863647 1.992188 -2.001953 0.000341 39.912109 47.177734 135.273438 -120.803795 1.070085 -2.631976 -56.883667 3.293888 -66.595314 -2.001953 1.992188 0.000000 26.191406 -58.378902 41.368637 126.596939 -1.333109 -2.428536 61.177410 -17.866753 -59.459179 -33.396542 32.955875 14.855595 69.352837 0.569729 -4.522166 -23.972475 -49.430031 18.902931 -0.873273 -48.703308 -21.362139 33.834782 0.911748 2.822425 -23.742989 24.177519 13.006562 
-10.899622 41.702980 21.753113 9.355469 -6.435547 32.108280 24.285778 1.319716 -2.249643 -13.388672 18.554689 5.891779 37.636723 7.978516 2.852917 -32.265625 -14.218751 -31.933598 1.992188 -2.001953 0.000341 40.292969 47.197266 135.651703 -120.611595 0.981031 -2.432873 -57.463623 2.925027 -66.543617 -2.001953 1.992188 0.000000 25.048830 -57.773434 43.321815 126.247192 -1.182068 -2.753891 66.709106 -20.849142 -62.464458 -35.339317 32.984631 13.859781 71.308746 0.598179 -4.730692 -23.823210 -48.314228 19.516066 -1.311379 -49.156170 -21.319378 34.215199 1.165606 2.749094 -24.655218 23.988398 13.378631 
-10.946157 41.726700 21.317999 9.726563 -7.109375 31.972658 24.285778 1.319716 -2.249643 -14.189454 18.115234 5.332032 37.636723 7.978516 2.852917 -32.968750 -14.521484 -29.963385 1.992188 -2.001953 0.000341 40.703121 46.855469 135.107422 -120.279999 0.812173 -2.718407 -58.005894 3.033723 -66.481209 -2.001953 1.992188 0.000000 24.755859 -56.484379 44.755863 125.721870 -1.545242 -2.271982 74.419510 -23.857822 -67.079681 -36.961830 32.693802 13.073673 71.806961 0.813546 -4.816927 -23.144833 -47.674282 19.504791 -3.245360 -48.723534 -20.483435 34.528378 0.853344 2.859304 -23.657021 23.833389 12.743122 
-11.176966 42.193256 20.900019 10.449219 -7.832032 31.562498 24.421860 0.897389 -2.224293 -15.546877 17.197264 4.648438 37.636723 7.978516 2.852917 -33.720707 -14.365235 -27.421871 1.992188 -2.001953 0.000341 39.375004 47.285160 131.696625 -120.453667 0.951310 -2.665867 -59.060440 3.768289 -64.520485 -2.001953 1.992188 0.000000 23.847656 -53.056644 43.615242 125.887383 -1.358121 -2.527320 79.556046 -26.079239 -67.279106 -37.867146 32.348450 12.904820 70.416344 0.706330 -4.721152 -21.468624 -47.178802 19.875462 -4.698457 -48.239395 -20.505447 34.039677 1.331727 2.641685 -20.979801 24.321934 11.979460 
